<svg fill="none" xmlns="http://www.w3.org/2000/svg">
<rect width="152" height="152" rx="16" fill="url(#paint0_linear_425_42)"/>
<circle cx="76" cy="76" r="70.0625" fill="url(#paint1_linear_425_42)"/>
<path d="M113.354 120.904C113.688 121.315 113.902 121.81 113.974 122.335C114.045 122.86 113.97 123.395 113.758 123.88C113.44 124.319 113.008 124.662 112.508 124.872C112.009 125.083 111.462 125.154 110.926 125.076H95.505C94.6732 125.105 93.8504 124.896 93.1336 124.473C92.4167 124.05 91.8357 123.431 91.4586 122.689L73.4299 90.5882L66.4166 78.0895C66.0171 77.3306 65.8307 76.4777 65.8771 75.6213C65.9227 74.9382 66.1063 74.2713 66.4166 73.661L91.1441 27.56C91.6002 27.0974 92.1474 26.7347 92.751 26.4948C93.3547 26.2548 94.0013 26.143 94.6505 26.1662H110.207C110.743 26.0889 111.29 26.1594 111.789 26.3701C112.288 26.5809 112.721 26.9239 113.039 27.3622C113.251 27.8476 113.326 28.3821 113.254 28.9071C113.183 29.4321 112.968 29.9272 112.634 30.3384L89.3456 73.661C88.9997 74.2596 88.7995 74.9311 88.7611 75.6213C88.7146 76.4791 88.901 77.3336 89.3006 78.0941L113.354 120.904Z" fill="#3297C8"/>
<path d="M68.9082 46.6897L60.6359 62.8075C60.4535 63.1698 60.1739 63.4743 59.8286 63.6871C59.4833 63.8999 59.0855 64.0126 58.6799 64.0126C58.2743 64.0126 57.8766 63.8999 57.5312 63.6871C57.1859 63.4743 56.9069 63.1698 56.7245 62.8075L39.9993 30.392C39.6796 29.9633 39.4784 29.4582 39.4153 28.9272C39.3522 28.3962 39.4295 27.8579 39.6398 27.3662C39.9287 26.9296 40.3357 26.5838 40.8132 26.3689C41.2906 26.1541 41.8188 26.079 42.3372 26.1523H57.4884C58.1267 26.1257 58.7632 26.2386 59.3533 26.4832C59.9435 26.7278 60.4731 27.0982 60.9054 27.5685L68.9082 43.1559C69.1755 43.7066 69.3144 44.3107 69.3144 44.9228C69.3144 45.5349 69.1755 46.139 68.9082 46.6897ZM60.3209 88.9512L65.1318 97.6284L68.7282 104.103C69.0377 104.656 69.2002 105.28 69.2002 105.914C69.2002 106.549 69.0377 107.172 68.7282 107.726L60.4109 122.693C60.0359 123.437 59.4558 124.059 58.7386 124.483C58.0215 124.908 57.1974 125.118 56.3645 125.089H41.0338C40.5038 125.163 39.9633 125.09 39.4719 124.879C38.9804 124.667 38.5568 124.325 38.2463 123.889C38.036 123.403 37.9581 122.869 38.0213 122.343C38.0845 121.817 38.2863 121.317 38.6058 120.895L56.3645 88.9422C56.5567 88.5852 56.8419 88.2867 57.1899 88.0785C57.5379 87.8704 57.9358 87.7602 58.3413 87.7597C58.7468 87.7593 59.1453 87.8686 59.4938 88.0759C59.8423 88.2833 60.1279 88.5811 60.3209 88.9378V88.9512Z" fill="#C0C8D2"/>
<defs>
<linearGradient id="paint0_linear_425_42" x1="0%" y1="0%" x2="100%" y2="100%" >
<stop stop-color="#3297C8"/>
<stop offset="1" stop-color="#03234B"/>
</linearGradient>
<linearGradient id="paint1_linear_425_42" x1="3.90625%" y1="3.90625%" x2="96.09342%" y2="96.09342%">
<stop stop-color="#052951"/>
<stop offset="1" stop-color="#3297C8"/>
</linearGradient>
</defs>
</svg>
